<svg width="78" height="66" viewBox="0 0 78 66" fill="none" xmlns="http://www.w3.org/2000/svg">
<path d="M62.3787 31.8108H15.7087V54.7136C15.7087 60.6636 26.1521 65.5275 39.2821 65.5275C52.4121 65.5275 62.8554 60.8052 62.8554 54.7136L62.3787 31.8108Z" fill="#773ADC"/>
<path d="M36.1188 0.455246L1.45211 19.7691C0.787014 20.2198 0.304659 20.9299 0.103365 21.7547C-0.0979293 22.5795 -0.00300927 23.4569 0.368777 24.208C0.595841 24.7602 0.974302 25.2221 1.45211 25.5302L36.1188 41.9636C36.6188 42.1961 37.1568 42.316 37.7004 42.316C38.2441 42.316 38.7821 42.1961 39.2821 41.9636L76.0288 25.4358C76.7083 24.9999 77.2112 24.2998 77.4363 23.4763C77.6614 22.6528 77.592 21.7669 77.2421 20.9969C76.9941 20.3904 76.567 19.8917 76.0288 19.5802L39.3688 0.360802C38.8557 0.107949 38.2967 -0.0149144 37.7338 0.00144333C37.1709 0.017801 36.6188 0.172954 36.1188 0.455246Z" fill="url(#paint0_linear_199_439)"/>
<path d="M68.4021 38.4217C68.2459 37.5311 67.905 36.6912 67.4055 35.9662C64.9397 31.2318 61.0977 27.5268 56.4855 25.4356L41.4055 18.5884L36.5955 22.3189L51.7621 29.355C57.0434 31.7076 61.2728 36.2148 63.5488 41.9162C64.2151 44.5051 64.6219 47.165 64.7621 49.8495M65.4555 49.8495L67.2755 45.93L69.5721 49.1412H70.0055C70.229 45.4771 69.6651 41.8067 68.3588 38.4217L65.4555 49.8495Z" fill="#50E6FF"/>
<path d="M38.5021 23.9718C41.709 23.9718 44.3088 22.5341 44.3088 20.7607C44.3088 18.9872 41.709 17.5496 38.5021 17.5496C35.2952 17.5496 32.6954 18.9872 32.6954 20.7607C32.6954 22.5341 35.2952 23.9718 38.5021 23.9718Z" fill="#552F99"/>
<defs>
<linearGradient id="paint0_linear_199_439" x1="38.7621" y1="-13.9475" x2="38.7621" y2="51.1247" gradientUnits="userSpaceOnUse">
<stop offset="0.13" stop-color="#773ADC"/>
<stop offset="0.23" stop-color="#8249E2"/>
<stop offset="0.43" stop-color="#9664EC"/>
<stop offset="0.6" stop-color="#A274F2"/>
<stop offset="0.74" stop-color="#A67AF4"/>
</linearGradient>
</defs>
</svg>
